<mxfile host="app.diagrams.net" modified="2023-01-27T17:02:47.045Z" agent="5.0 (Windows NT 10.0; Win64; x64) AppleWebKit/537.36 (KHTML, like Gecko) Chrome/109.0.0.0 Safari/537.36" etag="alfUZ_uRTjxgMMeAP5aS" version="20.8.13" type="github">
  <diagram name="Page-1" id="N1_iyu-hienccwWXEp4m">
    <mxGraphModel dx="2049" dy="1091" grid="1" gridSize="10" guides="1" tooltips="1" connect="1" arrows="1" fold="1" page="1" pageScale="1" pageWidth="1200" pageHeight="900" math="0" shadow="0">
      <root>
        <mxCell id="0" />
        <mxCell id="1" parent="0" />
        <mxCell id="Xgk8EHbq-odzf0BHCwVj-1" value="rt" style="strokeWidth=1;shadow=0;dashed=0;align=center;html=1;shape=mxgraph.mockup.containers.browserWindow;rSize=0;strokeColor=#666666;strokeColor2=#008cff;strokeColor3=#c4c4c4;mainText=,;recursiveResize=0;" parent="1" vertex="1">
          <mxGeometry x="55" y="100" width="1090" height="790" as="geometry" />
        </mxCell>
        <mxCell id="Xgk8EHbq-odzf0BHCwVj-3" value="Spotify Clone" style="strokeWidth=1;shadow=0;dashed=0;align=center;html=1;shape=mxgraph.mockup.containers.anchor;fontSize=17;fontColor=#666666;align=left;" parent="Xgk8EHbq-odzf0BHCwVj-1" vertex="1">
          <mxGeometry x="60" y="12" width="110" height="26" as="geometry" />
        </mxCell>
        <mxCell id="Xgk8EHbq-odzf0BHCwVj-4" value="https://localhost:4000/collection/playlists" style="strokeWidth=1;shadow=0;dashed=0;align=center;html=1;shape=mxgraph.mockup.containers.anchor;rSize=0;fontSize=17;fontColor=#666666;align=left;" parent="Xgk8EHbq-odzf0BHCwVj-1" vertex="1">
          <mxGeometry x="130" y="60" width="250" height="26" as="geometry" />
        </mxCell>
        <mxCell id="Xgk8EHbq-odzf0BHCwVj-5" value="" style="rounded=0;whiteSpace=wrap;html=1;rotation=90;" parent="Xgk8EHbq-odzf0BHCwVj-1" vertex="1">
          <mxGeometry x="-242.96" y="352.97" width="665.93" height="180" as="geometry" />
        </mxCell>
        <mxCell id="Xgk8EHbq-odzf0BHCwVj-6" value="&lt;font style=&quot;font-size: 21px;&quot;&gt;LINKS&lt;/font&gt;" style="text;html=1;strokeColor=none;fillColor=none;align=center;verticalAlign=middle;whiteSpace=wrap;rounded=0;" parent="Xgk8EHbq-odzf0BHCwVj-1" vertex="1">
          <mxGeometry x="20" y="130" width="120" height="110" as="geometry" />
        </mxCell>
        <mxCell id="Xgk8EHbq-odzf0BHCwVj-7" value="&lt;font style=&quot;font-size: 21px;&quot;&gt;Local&lt;br&gt;Playlists&lt;br&gt;&lt;/font&gt;" style="text;html=1;strokeColor=none;fillColor=none;align=center;verticalAlign=middle;whiteSpace=wrap;rounded=0;" parent="Xgk8EHbq-odzf0BHCwVj-1" vertex="1">
          <mxGeometry x="20" y="270" width="120" height="110" as="geometry" />
        </mxCell>
        <mxCell id="Xgk8EHbq-odzf0BHCwVj-8" value="" style="rounded=1;whiteSpace=wrap;html=1;fontSize=21;" parent="Xgk8EHbq-odzf0BHCwVj-1" vertex="1">
          <mxGeometry x="200" y="130" width="580" height="60" as="geometry" />
        </mxCell>
        <mxCell id="Xgk8EHbq-odzf0BHCwVj-9" value="Main Search Bar" style="text;html=1;strokeColor=none;fillColor=none;align=center;verticalAlign=middle;whiteSpace=wrap;rounded=0;fontSize=21;" parent="Xgk8EHbq-odzf0BHCwVj-1" vertex="1">
          <mxGeometry x="210" y="145" width="530" height="30" as="geometry" />
        </mxCell>
        <mxCell id="Xgk8EHbq-odzf0BHCwVj-10" value="" style="rounded=0;whiteSpace=wrap;html=1;fontSize=21;" parent="Xgk8EHbq-odzf0BHCwVj-1" vertex="1">
          <mxGeometry x="950" y="130" width="120" height="90" as="geometry" />
        </mxCell>
        <mxCell id="Xgk8EHbq-odzf0BHCwVj-11" value="Logged in user menu" style="text;html=1;strokeColor=none;fillColor=none;align=center;verticalAlign=middle;whiteSpace=wrap;rounded=0;fontSize=21;" parent="Xgk8EHbq-odzf0BHCwVj-1" vertex="1">
          <mxGeometry x="980" y="160" width="60" height="30" as="geometry" />
        </mxCell>
        <mxCell id="Xgk8EHbq-odzf0BHCwVj-42" value="" style="strokeWidth=1;shadow=0;dashed=0;align=center;html=1;shape=mxgraph.mockup.rrect;rSize=10;fillColor=#ffffff;strokeColor=#666666;" parent="Xgk8EHbq-odzf0BHCwVj-1" vertex="1">
          <mxGeometry x="246.25" y="240" width="500" height="50" as="geometry" />
        </mxCell>
        <mxCell id="Xgk8EHbq-odzf0BHCwVj-43" value="Songs" style="strokeColor=inherit;fillColor=inherit;gradientColor=inherit;strokeWidth=1;shadow=0;dashed=0;align=center;html=1;shape=mxgraph.mockup.rrect;rSize=0;fontSize=17;fontColor=#666666;fontStyle=1;resizeHeight=1;" parent="Xgk8EHbq-odzf0BHCwVj-42" vertex="1">
          <mxGeometry width="125" height="50" relative="1" as="geometry">
            <mxPoint x="125" as="offset" />
          </mxGeometry>
        </mxCell>
        <mxCell id="Xgk8EHbq-odzf0BHCwVj-44" value="Button 3" style="strokeColor=inherit;fillColor=inherit;gradientColor=inherit;strokeWidth=1;shadow=0;dashed=0;align=center;html=1;shape=mxgraph.mockup.rrect;rSize=0;fontSize=17;fontColor=#666666;fontStyle=1;resizeHeight=1;" parent="Xgk8EHbq-odzf0BHCwVj-42" vertex="1">
          <mxGeometry width="125" height="50" relative="1" as="geometry">
            <mxPoint x="250" as="offset" />
          </mxGeometry>
        </mxCell>
        <mxCell id="Xgk8EHbq-odzf0BHCwVj-45" value="Button 4" style="strokeColor=inherit;fillColor=inherit;gradientColor=inherit;strokeWidth=1;shadow=0;dashed=0;align=center;html=1;shape=mxgraph.mockup.rightButton;rSize=10;fontSize=17;fontColor=#666666;fontStyle=1;resizeHeight=1;" parent="Xgk8EHbq-odzf0BHCwVj-42" vertex="1">
          <mxGeometry x="1" width="125" height="50" relative="1" as="geometry">
            <mxPoint x="-125" as="offset" />
          </mxGeometry>
        </mxCell>
        <mxCell id="Xgk8EHbq-odzf0BHCwVj-46" value="Playlists" style="strokeWidth=1;shadow=0;dashed=0;align=center;html=1;shape=mxgraph.mockup.leftButton;rSize=10;fontSize=17;fontColor=#ffffff;fontStyle=1;fillColor=#008cff;strokeColor=#008cff;resizeHeight=1;" parent="Xgk8EHbq-odzf0BHCwVj-42" vertex="1">
          <mxGeometry width="125" height="50" relative="1" as="geometry" />
        </mxCell>
        <mxCell id="Xgk8EHbq-odzf0BHCwVj-47" value="" style="rounded=0;whiteSpace=wrap;html=1;" parent="Xgk8EHbq-odzf0BHCwVj-1" vertex="1">
          <mxGeometry x="230" y="383.75" width="110" height="136.25" as="geometry" />
        </mxCell>
        <mxCell id="Xgk8EHbq-odzf0BHCwVj-48" value="Playlists" style="text;html=1;strokeColor=none;fillColor=none;align=center;verticalAlign=middle;whiteSpace=wrap;rounded=0;fontSize=21;" parent="Xgk8EHbq-odzf0BHCwVj-1" vertex="1">
          <mxGeometry x="50" y="320" width="530" height="30" as="geometry" />
        </mxCell>
        <mxCell id="Xgk8EHbq-odzf0BHCwVj-49" value="" style="rounded=0;whiteSpace=wrap;html=1;" parent="Xgk8EHbq-odzf0BHCwVj-1" vertex="1">
          <mxGeometry x="370" y="383.75" width="110" height="136.25" as="geometry" />
        </mxCell>
        <mxCell id="Xgk8EHbq-odzf0BHCwVj-50" value="" style="rounded=0;whiteSpace=wrap;html=1;" parent="Xgk8EHbq-odzf0BHCwVj-1" vertex="1">
          <mxGeometry x="510" y="383.75" width="110" height="136.25" as="geometry" />
        </mxCell>
        <mxCell id="Xgk8EHbq-odzf0BHCwVj-51" value="" style="rounded=0;whiteSpace=wrap;html=1;" parent="Xgk8EHbq-odzf0BHCwVj-1" vertex="1">
          <mxGeometry x="790" y="383.75" width="110" height="136.25" as="geometry" />
        </mxCell>
        <mxCell id="Xgk8EHbq-odzf0BHCwVj-52" value="" style="rounded=0;whiteSpace=wrap;html=1;" parent="Xgk8EHbq-odzf0BHCwVj-1" vertex="1">
          <mxGeometry x="650" y="383.75" width="110" height="136.25" as="geometry" />
        </mxCell>
        <mxCell id="Xgk8EHbq-odzf0BHCwVj-53" value="" style="rounded=0;whiteSpace=wrap;html=1;" parent="Xgk8EHbq-odzf0BHCwVj-1" vertex="1">
          <mxGeometry x="230" y="550" width="110" height="136.25" as="geometry" />
        </mxCell>
        <mxCell id="Xgk8EHbq-odzf0BHCwVj-54" value="" style="rounded=0;whiteSpace=wrap;html=1;" parent="Xgk8EHbq-odzf0BHCwVj-1" vertex="1">
          <mxGeometry x="370" y="550" width="110" height="136.25" as="geometry" />
        </mxCell>
        <mxCell id="Xgk8EHbq-odzf0BHCwVj-55" value="" style="rounded=0;whiteSpace=wrap;html=1;" parent="Xgk8EHbq-odzf0BHCwVj-1" vertex="1">
          <mxGeometry x="510" y="550" width="110" height="136.25" as="geometry" />
        </mxCell>
        <mxCell id="Xgk8EHbq-odzf0BHCwVj-32" value="&lt;font style=&quot;font-size: 21px;&quot;&gt;Local users playlists listed as tiles with some basic information and a button to list contents&lt;/font&gt;" style="text;html=1;strokeColor=none;fillColor=none;align=center;verticalAlign=middle;whiteSpace=wrap;rounded=0;" parent="1" vertex="1">
          <mxGeometry x="65" y="20" width="1070" height="60" as="geometry" />
        </mxCell>
      </root>
    </mxGraphModel>
  </diagram>
</mxfile>
